<?xml version="1.0" encoding="UTF-8"?>
<svg xmlns="http://www.w3.org/2000/svg" viewBox="0 0 108 108" width="108" height="108" role="img" aria-label="Call to Prayer Sweden">
  <defs>
    <linearGradient id="bg" x1="16" y1="10" x2="92" y2="98" gradientUnits="userSpaceOnUse">
      <stop offset="0" stop-color="#14171C"/>
      <stop offset="1" stop-color="#000000"/>
    </linearGradient>
    <linearGradient id="gold" x1="33" y1="24" x2="76" y2="84" gradientUnits="userSpaceOnUse">
      <stop offset="0" stop-color="#F3DA93"/>
      <stop offset="1" stop-color="#BB8E2F"/>
    </linearGradient>
  </defs>
  <rect width="108" height="108" rx="24" fill="url(#bg)"/>
  <circle cx="54" cy="54" r="31" fill="none" stroke="#D6A94A" stroke-opacity="0.26" stroke-width="2.6"/>

  <path fill="url(#gold)" d="M62.8 24.8c-8.8 0-16 7.2-16 16 0 8.2 6 14.9 13.8 15.9-2.3 2.3-5.5 3.6-9 3.6-7.1 0-12.8-5.8-12.8-12.9 0-8 5.8-14.8 13.7-15.9 3.7-.5 7.3.1 10.3 1.6z"/>
  <circle cx="65.6" cy="31.8" r="1.9" fill="#F9E8B9"/>

  <path fill="url(#gold)" d="M31.5 79.5h45v4.5h-45z"/>
  <path fill="url(#gold)" d="M38.5 79.5h6.3V72c0-2.6-6.3-2.6-6.3 0z"/>
  <path fill="url(#gold)" d="M50.8 79.5h6.4V68.5c0-3.2-6.4-3.2-6.4 0z"/>
  <path fill="url(#gold)" d="M63.2 79.5h6.3V72c0-2.6-6.3-2.6-6.3 0z"/>
  <path fill="url(#gold)" d="M37.2 79.1h4.2l-.8-29.2c0-1.7-1.2-2.4-1.6-2.4s-1.6.7-1.6 2.4z"/>
  <path fill="url(#gold)" d="M66.7 79.1h4.2l-.8-33.3c0-1.7-1.2-2.4-1.6-2.4s-1.6.7-1.6 2.4z"/>
  <path fill="url(#gold)" d="M44.2 61.2c0-7.9 4.4-14.3 9.8-14.3s9.8 6.4 9.8 14.3z"/>
</svg>
